<?xml version="1.0" encoding="UTF-8"?>
<svg id="Layer_1" data-name="Layer 1" xmlns="http://www.w3.org/2000/svg" version="1.1" viewBox="0 0 324 57.6">
  <defs>
    <style>
      .cls-1 {
        fill: #114b9b;
        stroke-width: 0px;
      }
    </style>
  </defs>
  <path class="cls-1" d="M94.4,52.5v-19.3h-18.8v19.3h-7.2V8.4h7.2v18.1h18.8V8.4h7.2v44.1h-7.2Z"/>
  <path class="cls-1" d="M161.2,20.1v6h-3.7c-4.7,0-6.9,3.1-6.9,9.6v16.9h-6.9v-31.9h6.3l.6,3.5c1.2-1.9,3.5-4.1,7.5-4.1s2.3,0,3.1.1h0Z"/>
  <path class="cls-1" d="M185.2,34.5c0-4.9-1-9.1-6.3-9.1s-6.3,4.1-6.3,9.1v18.1h-6.9V20.1h6.3l.6,3.5c.9-1.9,4.8-4.1,8.6-4.1s7.9,2.9,9.1,4.8c1.7-2.9,6-4.8,9.8-4.8,8.8,0,11.5,5.3,11.5,15v18.1h-6.8v-18.1c0-4.8-1.3-9.2-6.3-9.2s-6.3,4.1-6.3,9.2v18.1h-6.9l-.2-18.1h0Z"/>
  <path class="cls-1" d="M229.9,53.1c-9.5,0-15.1-6.8-15.1-16.9s5.7-16.9,15.1-16.9,15,6.9,15,16.9-5.7,16.9-15,16.9ZM229.9,25.3c-4.9,0-8.2,3.9-8.2,10.9s3.2,11,8.2,11,8.2-3.9,8.2-11-3.3-10.9-8.2-10.9Z"/>
  <path class="cls-1" d="M270.5,34.9c0-6.7-2.3-9.6-7.3-9.6s-7.2,3.1-7.2,9.6v17.6h-6.9V20.1h6.3l.6,3.5c1-2,4.5-4.1,8.6-4.1,9.3,0,12.9,5,12.9,15.4v17.6h-6.8l-.2-17.6h0Z"/>
  <path class="cls-1" d="M282.4,8.4h7.6v7.6h-7.6v-7.6ZM289.6,20.1v32.4h-6.9V20.1h6.9Z"/>
  <path class="cls-1" d="M137.5,47.1c-1.3,0-1.7-1-1.7-3v-11.3c0-8.8-4.7-13.4-13.9-13.4s-12.8,3.2-13.4,10.5v1h6.9c.1-3.9,2.6-5.7,6.6-5.7,6,0,7,3.4,7,5.9v2h-8.3c-8.5,0-13.2,4.6-13.2,9.7s4.5,10.3,12,10.3c5.5-.1,8.8-3.2,10.1-4.8.5,2.7,2.3,4.6,5.7,4.6s2.1,0,4.1-.5v-5.7c-.4.3-1.2.4-1.9.4h0ZM128.8,39.9c0,3.5-3.1,7.4-8.7,7.4s-5.8-2.3-5.8-4.5,1.1-4.5,6.8-4.5h7.6v1.6h.1Z"/>
  <path class="cls-1" d="M323.4,41.1h-7c-1,4-3.7,6.2-7.2,6.2-5.5,0-8.3-4.5-8.3-11s2.9-10.9,8.3-10.9,6,2.1,7.1,6.2h7s-.1-.9-.1-1.2c-1-5.6-5.6-10.8-14.1-10.8s-15.3,6.8-15.3,16.9,6,16.9,15.3,16.9,13.1-5.5,14.2-10.8v-1.3h.1Z"/>
  <path class="cls-1" d="M39.3,18.1c-5.9-5.9-15.2-5.9-21.1,0-2.9,2.9-1.9,11.2,4,17.1,5.9,5.9,14.2,6.8,17.1,4,5.9-5.8,5.9-15.2,0-21.1ZM26.2,31.4c-3-3-4.2-6.7-2.8-8.1,3-3,7.9-3,10.9,0,3,3,3,7.9,0,10.9s-5.1.2-8.1-2.8h0Z"/>
  <path class="cls-1" d="M28.7.8C13.3.8.8,13.4.8,28.7s12.4,27.9,27.9,27.9,27.9-12.6,27.9-27.9c.1-15.4-12.3-27.9-27.9-27.9ZM43.4,43.3c-3.9,3.9-15.1,2-23.1-6.1-8.1-8.1-10.1-19.2-6.1-23.1,8.1-8.1,21.2-8.1,29.2,0,8.1,8,8.1,21.2,0,29.2Z"/>
</svg>